<mxfile host="app.diagrams.net" modified="2023-03-18T14:48:06.625Z" agent="5.0 (Windows NT 10.0; Win64; x64) AppleWebKit/537.36 (KHTML, like Gecko) Chrome/109.0.0.0 Safari/537.36 Edg/109.0.1518.70" etag="xl1jZglaH1m6wk9-9J4u" version="21.0.8" type="github">
  <diagram name="第 1 页" id="T4vhsmyyaOf0c63LwpKi">
    <mxGraphModel dx="786" dy="461" grid="1" gridSize="10" guides="1" tooltips="1" connect="1" arrows="1" fold="1" page="1" pageScale="1" pageWidth="827" pageHeight="1169" math="0" shadow="0">
      <root>
        <mxCell id="0" />
        <mxCell id="1" parent="0" />
        <mxCell id="UJ7PjZlbbnUGj2bf6kb8-1" value="&lt;p style=&quot;line-height: 100%; font-size: 14px;&quot;&gt;&lt;font style=&quot;font-size: 14px;&quot;&gt;第一章 绪论&lt;/font&gt;&lt;/p&gt;&lt;p style=&quot;line-height: 100%; font-size: 14px;&quot;&gt;&lt;font style=&quot;font-size: 14px;&quot;&gt;&lt;br&gt;&lt;/font&gt;&lt;/p&gt;&lt;p style=&quot;line-height: 100%; font-size: 14px;&quot;&gt;&lt;br&gt;&lt;/p&gt;" style="rounded=1;whiteSpace=wrap;html=1;" vertex="1" parent="1">
          <mxGeometry x="150" y="60" width="470" height="80" as="geometry" />
        </mxCell>
        <mxCell id="UJ7PjZlbbnUGj2bf6kb8-2" value="研究背景及意义" style="rounded=1;whiteSpace=wrap;html=1;dashed=1;dashPattern=12 12;" vertex="1" parent="1">
          <mxGeometry x="160" y="100" width="90" height="30" as="geometry" />
        </mxCell>
        <mxCell id="UJ7PjZlbbnUGj2bf6kb8-3" value="国内外研究现状" style="rounded=1;whiteSpace=wrap;html=1;dashed=1;dashPattern=8 8;" vertex="1" parent="1">
          <mxGeometry x="280" y="100" width="90" height="30" as="geometry" />
        </mxCell>
        <mxCell id="UJ7PjZlbbnUGj2bf6kb8-4" value="研究内容" style="rounded=1;whiteSpace=wrap;html=1;dashed=1;dashPattern=12 12;" vertex="1" parent="1">
          <mxGeometry x="400" y="100" width="90" height="30" as="geometry" />
        </mxCell>
        <mxCell id="UJ7PjZlbbnUGj2bf6kb8-5" value="组织结构" style="rounded=1;whiteSpace=wrap;html=1;dashed=1;dashPattern=12 12;" vertex="1" parent="1">
          <mxGeometry x="520" y="100" width="90" height="30" as="geometry" />
        </mxCell>
        <mxCell id="UJ7PjZlbbnUGj2bf6kb8-8" value="&lt;font style=&quot;font-size: 14px;&quot;&gt;第二章&amp;nbsp; 相关理论与技术&lt;/font&gt;&lt;br&gt;&lt;br&gt;&lt;br&gt;&lt;br&gt;&lt;br&gt;&lt;br&gt;&lt;br&gt;&lt;br&gt;&lt;br&gt;&lt;br&gt;&lt;br&gt;" style="rounded=1;whiteSpace=wrap;html=1;" vertex="1" parent="1">
          <mxGeometry x="165" y="180" width="440" height="230" as="geometry" />
        </mxCell>
        <mxCell id="UJ7PjZlbbnUGj2bf6kb8-6" value="" style="rounded=1;whiteSpace=wrap;html=1;dashed=1;dashPattern=12 12;" vertex="1" parent="1">
          <mxGeometry x="245" y="250" width="120" height="140" as="geometry" />
        </mxCell>
        <mxCell id="UJ7PjZlbbnUGj2bf6kb8-7" value="" style="rounded=1;whiteSpace=wrap;html=1;dashed=1;dashPattern=12 12;" vertex="1" parent="1">
          <mxGeometry x="405" y="250" width="120" height="140" as="geometry" />
        </mxCell>
        <mxCell id="UJ7PjZlbbnUGj2bf6kb8-10" value="联邦学习" style="rounded=1;whiteSpace=wrap;html=1;dashed=1;" vertex="1" parent="1">
          <mxGeometry x="260" y="260" width="90" height="30" as="geometry" />
        </mxCell>
        <mxCell id="UJ7PjZlbbnUGj2bf6kb8-11" value="异质性数据" style="rounded=1;whiteSpace=wrap;html=1;dashed=1;" vertex="1" parent="1">
          <mxGeometry x="420" y="260" width="90" height="30" as="geometry" />
        </mxCell>
        <mxCell id="UJ7PjZlbbnUGj2bf6kb8-12" value="定义、分类&lt;br&gt;&lt;br style=&quot;border-color: var(--border-color);&quot;&gt;经典算法&lt;br&gt;&lt;br style=&quot;border-color: var(--border-color);&quot;&gt;常用框架" style="text;html=1;strokeColor=none;fillColor=none;align=center;verticalAlign=middle;whiteSpace=wrap;rounded=0;" vertex="1" parent="1">
          <mxGeometry x="265" y="320" width="80" height="30" as="geometry" />
        </mxCell>
        <mxCell id="UJ7PjZlbbnUGj2bf6kb8-13" value="定义&lt;br&gt;&lt;br style=&quot;border-color: var(--border-color);&quot;&gt;优化方法" style="text;html=1;strokeColor=none;fillColor=none;align=center;verticalAlign=middle;whiteSpace=wrap;rounded=0;" vertex="1" parent="1">
          <mxGeometry x="425" y="320" width="80" height="30" as="geometry" />
        </mxCell>
        <mxCell id="UJ7PjZlbbnUGj2bf6kb8-14" value="" style="endArrow=classic;html=1;rounded=0;exitX=0.5;exitY=1;exitDx=0;exitDy=0;entryX=0.5;entryY=0;entryDx=0;entryDy=0;" edge="1" parent="1" source="UJ7PjZlbbnUGj2bf6kb8-1" target="UJ7PjZlbbnUGj2bf6kb8-8">
          <mxGeometry width="50" height="50" relative="1" as="geometry">
            <mxPoint x="360" y="250" as="sourcePoint" />
            <mxPoint x="410" y="200" as="targetPoint" />
          </mxGeometry>
        </mxCell>
        <mxCell id="UJ7PjZlbbnUGj2bf6kb8-15" value="" style="rounded=1;whiteSpace=wrap;html=1;" vertex="1" parent="1">
          <mxGeometry x="30" y="450" width="320" height="230" as="geometry" />
        </mxCell>
        <mxCell id="UJ7PjZlbbnUGj2bf6kb8-16" value="" style="rounded=1;whiteSpace=wrap;html=1;" vertex="1" parent="1">
          <mxGeometry x="420" y="450" width="320" height="230" as="geometry" />
        </mxCell>
        <mxCell id="UJ7PjZlbbnUGj2bf6kb8-29" value="" style="edgeStyle=orthogonalEdgeStyle;rounded=0;orthogonalLoop=1;jettySize=auto;html=1;" edge="1" parent="1" source="UJ7PjZlbbnUGj2bf6kb8-17" target="UJ7PjZlbbnUGj2bf6kb8-18">
          <mxGeometry relative="1" as="geometry" />
        </mxCell>
        <mxCell id="UJ7PjZlbbnUGj2bf6kb8-17" value="问题分析" style="rounded=1;whiteSpace=wrap;html=1;dashed=1;dashPattern=12 12;" vertex="1" parent="1">
          <mxGeometry x="50" y="500" width="90" height="30" as="geometry" />
        </mxCell>
        <mxCell id="UJ7PjZlbbnUGj2bf6kb8-18" value="理论分析" style="rounded=1;whiteSpace=wrap;html=1;dashed=1;dashPattern=12 12;" vertex="1" parent="1">
          <mxGeometry x="50" y="570" width="90" height="30" as="geometry" />
        </mxCell>
        <mxCell id="UJ7PjZlbbnUGj2bf6kb8-19" value="" style="rounded=1;whiteSpace=wrap;html=1;dashed=1;dashPattern=12 12;" vertex="1" parent="1">
          <mxGeometry x="180" y="500" width="150" height="170" as="geometry" />
        </mxCell>
        <mxCell id="UJ7PjZlbbnUGj2bf6kb8-20" value="" style="rounded=1;whiteSpace=wrap;html=1;dashed=1;dashPattern=8 8;" vertex="1" parent="1">
          <mxGeometry x="190" y="510" width="130" height="90" as="geometry" />
        </mxCell>
        <mxCell id="UJ7PjZlbbnUGj2bf6kb8-21" value="&lt;font style=&quot;border-color: var(--border-color); font-size: 14px;&quot;&gt;第三章&amp;nbsp; 动态加权聚合方法&lt;/font&gt;" style="text;html=1;strokeColor=none;fillColor=none;align=center;verticalAlign=middle;whiteSpace=wrap;rounded=0;" vertex="1" parent="1">
          <mxGeometry x="92.5" y="460" width="195" height="30" as="geometry" />
        </mxCell>
        <mxCell id="UJ7PjZlbbnUGj2bf6kb8-22" value="&lt;font style=&quot;font-size: 14px;&quot;&gt;第四章&amp;nbsp; 动态客户端选择&lt;/font&gt;" style="text;html=1;strokeColor=none;fillColor=none;align=center;verticalAlign=middle;whiteSpace=wrap;rounded=0;" vertex="1" parent="1">
          <mxGeometry x="490" y="460" width="195" height="30" as="geometry" />
        </mxCell>
        <mxCell id="UJ7PjZlbbnUGj2bf6kb8-23" value="算法实现" style="rounded=1;whiteSpace=wrap;html=1;dashed=1;dashPattern=8 8;" vertex="1" parent="1">
          <mxGeometry x="190" y="610" width="130" height="20" as="geometry" />
        </mxCell>
        <mxCell id="UJ7PjZlbbnUGj2bf6kb8-24" value="实验分析" style="rounded=1;whiteSpace=wrap;html=1;dashed=1;dashPattern=8 8;" vertex="1" parent="1">
          <mxGeometry x="190" y="640" width="130" height="20" as="geometry" />
        </mxCell>
        <mxCell id="UJ7PjZlbbnUGj2bf6kb8-25" value="关键步骤" style="rounded=1;whiteSpace=wrap;html=1;dashed=1;" vertex="1" parent="1">
          <mxGeometry x="210" y="515" width="90" height="20" as="geometry" />
        </mxCell>
        <mxCell id="UJ7PjZlbbnUGj2bf6kb8-26" value="量化数据集平衡度&lt;br&gt;&lt;br&gt;设计模型聚合策略" style="text;html=1;strokeColor=none;fillColor=none;align=center;verticalAlign=middle;whiteSpace=wrap;rounded=0;" vertex="1" parent="1">
          <mxGeometry x="205" y="550" width="100" height="30" as="geometry" />
        </mxCell>
        <mxCell id="UJ7PjZlbbnUGj2bf6kb8-27" value="" style="endArrow=classic;html=1;rounded=0;exitX=0.129;exitY=1.009;exitDx=0;exitDy=0;exitPerimeter=0;entryX=0.599;entryY=0.009;entryDx=0;entryDy=0;entryPerimeter=0;" edge="1" parent="1" source="UJ7PjZlbbnUGj2bf6kb8-8" target="UJ7PjZlbbnUGj2bf6kb8-15">
          <mxGeometry width="50" height="50" relative="1" as="geometry">
            <mxPoint x="330" y="530" as="sourcePoint" />
            <mxPoint x="380" y="480" as="targetPoint" />
          </mxGeometry>
        </mxCell>
        <mxCell id="UJ7PjZlbbnUGj2bf6kb8-28" value="" style="endArrow=classic;html=1;rounded=0;entryX=0.375;entryY=0;entryDx=0;entryDy=0;entryPerimeter=0;" edge="1" parent="1" target="UJ7PjZlbbnUGj2bf6kb8-16">
          <mxGeometry width="50" height="50" relative="1" as="geometry">
            <mxPoint x="540" y="412" as="sourcePoint" />
            <mxPoint x="589" y="450" as="targetPoint" />
          </mxGeometry>
        </mxCell>
        <mxCell id="UJ7PjZlbbnUGj2bf6kb8-31" value="" style="endArrow=classic;html=1;rounded=0;entryX=0;entryY=0.5;entryDx=0;entryDy=0;exitX=1;exitY=0.5;exitDx=0;exitDy=0;exitPerimeter=0;" edge="1" parent="1" source="UJ7PjZlbbnUGj2bf6kb8-18" target="UJ7PjZlbbnUGj2bf6kb8-19">
          <mxGeometry width="50" height="50" relative="1" as="geometry">
            <mxPoint x="150" y="590" as="sourcePoint" />
            <mxPoint x="200" y="540" as="targetPoint" />
          </mxGeometry>
        </mxCell>
        <mxCell id="UJ7PjZlbbnUGj2bf6kb8-32" value="" style="edgeStyle=orthogonalEdgeStyle;rounded=0;orthogonalLoop=1;jettySize=auto;html=1;" edge="1" parent="1" source="UJ7PjZlbbnUGj2bf6kb8-33" target="UJ7PjZlbbnUGj2bf6kb8-34">
          <mxGeometry relative="1" as="geometry" />
        </mxCell>
        <mxCell id="UJ7PjZlbbnUGj2bf6kb8-33" value="问题分析" style="rounded=1;whiteSpace=wrap;html=1;dashed=1;dashPattern=12 12;" vertex="1" parent="1">
          <mxGeometry x="447.5" y="500" width="90" height="30" as="geometry" />
        </mxCell>
        <mxCell id="UJ7PjZlbbnUGj2bf6kb8-34" value="理论分析" style="rounded=1;whiteSpace=wrap;html=1;dashed=1;dashPattern=12 12;" vertex="1" parent="1">
          <mxGeometry x="447.5" y="570" width="90" height="30" as="geometry" />
        </mxCell>
        <mxCell id="UJ7PjZlbbnUGj2bf6kb8-35" value="" style="rounded=1;whiteSpace=wrap;html=1;dashed=1;dashPattern=12 12;" vertex="1" parent="1">
          <mxGeometry x="577.5" y="500" width="150" height="170" as="geometry" />
        </mxCell>
        <mxCell id="UJ7PjZlbbnUGj2bf6kb8-36" value="" style="rounded=1;whiteSpace=wrap;html=1;dashed=1;dashPattern=8 8;" vertex="1" parent="1">
          <mxGeometry x="587.5" y="510" width="130" height="90" as="geometry" />
        </mxCell>
        <mxCell id="UJ7PjZlbbnUGj2bf6kb8-37" value="算法实现" style="rounded=1;whiteSpace=wrap;html=1;dashed=1;dashPattern=8 8;" vertex="1" parent="1">
          <mxGeometry x="587.5" y="610" width="130" height="20" as="geometry" />
        </mxCell>
        <mxCell id="UJ7PjZlbbnUGj2bf6kb8-38" value="实验分析" style="rounded=1;whiteSpace=wrap;html=1;dashed=1;dashPattern=8 8;" vertex="1" parent="1">
          <mxGeometry x="587.5" y="640" width="130" height="20" as="geometry" />
        </mxCell>
        <mxCell id="UJ7PjZlbbnUGj2bf6kb8-39" value="关键步骤" style="rounded=1;whiteSpace=wrap;html=1;dashed=1;" vertex="1" parent="1">
          <mxGeometry x="607.5" y="515" width="90" height="20" as="geometry" />
        </mxCell>
        <mxCell id="UJ7PjZlbbnUGj2bf6kb8-40" value="设计客户端质量指标&lt;br&gt;&lt;br&gt;设计客户端选择策略" style="text;html=1;strokeColor=none;fillColor=none;align=center;verticalAlign=middle;whiteSpace=wrap;rounded=0;" vertex="1" parent="1">
          <mxGeometry x="596.25" y="550" width="112.5" height="30" as="geometry" />
        </mxCell>
        <mxCell id="UJ7PjZlbbnUGj2bf6kb8-41" value="" style="endArrow=classic;html=1;rounded=0;entryX=0;entryY=0.5;entryDx=0;entryDy=0;exitX=1;exitY=0.5;exitDx=0;exitDy=0;exitPerimeter=0;" edge="1" parent="1" source="UJ7PjZlbbnUGj2bf6kb8-34" target="UJ7PjZlbbnUGj2bf6kb8-35">
          <mxGeometry width="50" height="50" relative="1" as="geometry">
            <mxPoint x="547.5" y="590" as="sourcePoint" />
            <mxPoint x="597.5" y="540" as="targetPoint" />
          </mxGeometry>
        </mxCell>
        <mxCell id="UJ7PjZlbbnUGj2bf6kb8-42" value="&lt;p style=&quot;line-height: 100%; font-size: 14px;&quot;&gt;&lt;font style=&quot;font-size: 14px;&quot;&gt;第五章&amp;nbsp; 分析总结与展望&lt;/font&gt;&lt;/p&gt;&lt;p style=&quot;line-height: 100%; font-size: 14px;&quot;&gt;&lt;font style=&quot;font-size: 14px;&quot;&gt;&lt;br&gt;&lt;/font&gt;&lt;/p&gt;&lt;p style=&quot;line-height: 100%; font-size: 14px;&quot;&gt;&lt;br&gt;&lt;/p&gt;" style="rounded=1;whiteSpace=wrap;html=1;" vertex="1" parent="1">
          <mxGeometry x="150" y="740" width="470" height="80" as="geometry" />
        </mxCell>
        <mxCell id="UJ7PjZlbbnUGj2bf6kb8-43" value="总结" style="rounded=1;whiteSpace=wrap;html=1;dashed=1;dashPattern=12 12;" vertex="1" parent="1">
          <mxGeometry x="220" y="780" width="90" height="30" as="geometry" />
        </mxCell>
        <mxCell id="UJ7PjZlbbnUGj2bf6kb8-46" value="展望" style="rounded=1;whiteSpace=wrap;html=1;dashed=1;dashPattern=12 12;" vertex="1" parent="1">
          <mxGeometry x="450" y="780" width="90" height="30" as="geometry" />
        </mxCell>
        <mxCell id="UJ7PjZlbbnUGj2bf6kb8-47" value="" style="endArrow=classic;html=1;rounded=0;entryX=0.25;entryY=0;entryDx=0;entryDy=0;" edge="1" parent="1" target="UJ7PjZlbbnUGj2bf6kb8-42">
          <mxGeometry width="50" height="50" relative="1" as="geometry">
            <mxPoint x="268" y="680" as="sourcePoint" />
            <mxPoint x="330" y="610" as="targetPoint" />
          </mxGeometry>
        </mxCell>
        <mxCell id="UJ7PjZlbbnUGj2bf6kb8-48" value="" style="endArrow=classic;html=1;rounded=0;entryX=0.729;entryY=-0.03;entryDx=0;entryDy=0;entryPerimeter=0;" edge="1" parent="1" target="UJ7PjZlbbnUGj2bf6kb8-42">
          <mxGeometry width="50" height="50" relative="1" as="geometry">
            <mxPoint x="493" y="680" as="sourcePoint" />
            <mxPoint x="540" y="630" as="targetPoint" />
          </mxGeometry>
        </mxCell>
      </root>
    </mxGraphModel>
  </diagram>
</mxfile>
